<svg width="24" height="24" viewBox="0 0 24 24" fill="none" xmlns="http://www.w3.org/2000/svg">
<path d="M7.73336 4.33841H5.40002C3.74317 4.33841 2.40002 5.68156 2.40002 7.33841V18.5999C2.40002 20.2568 3.74317 21.5999 5.40002 21.5999H18.6C20.2569 21.5999 21.6 20.2568 21.6 18.6V7.33841C21.6 5.68156 20.2569 4.33841 18.6 4.33841H16.2667M7.73336 4.33841V1.19995M7.73336 4.33841H16.2667M16.2667 4.33841V1.19995M6.66669 8.52303H17.3334M16.2667 13.2701H16.138M7.60471 13.2701H7.73336M11.8714 13.2701H12M7.60471 16.4086H7.73336M11.8714 16.4086H12M16.138 16.4086H16.2667" stroke="#052136" stroke-width="1.5" stroke-linecap="round"/>
</svg>
