<svg width="20" height="20" viewBox="0 0 20 20" fill="none" xmlns="http://www.w3.org/2000/svg">
<path d="M6.44444 3.61538H5C3.34315 3.61538 2 4.95853 2 6.61539V15C2 16.6569 3.34315 18 5 18H15C16.6569 18 18 16.6569 18 15V6.61538C18 4.95853 16.6569 3.61538 15 3.61538H13.5556M6.44444 3.61538V1M6.44444 3.61538H13.5556M13.5556 3.61538V1M5.55556 7.10256H14.4444M13.5556 11.0585H13.4484M6.33724 11.0585H6.44444M9.8928 11.0585H10M6.33724 13.6739H6.44444M9.8928 13.6739H10M13.4484 13.6739H13.5556" stroke="#052136" stroke-width="1.5" stroke-linecap="round"/>
</svg>
