<svg width="17" height="19" viewBox="0 0 17 19" fill="none" xmlns="http://www.w3.org/2000/svg">
<path d="M14.68 6.80001L13.8288 14.6381C13.7001 15.8263 13.6363 16.4199 13.3424 16.8688C13.0847 17.264 12.7056 17.58 12.2531 17.7769C11.7393 18 11.0928 18 9.79573 18H7.40427C6.10821 18 5.46069 18 4.94693 17.776C4.49402 17.5792 4.11459 17.2632 3.85659 16.8679C3.56475 16.4199 3.49989 15.8263 3.37019 14.6381L2.52 6.80001M10.12 12.8667V8.20001M7.08 12.8667V8.20001M1 4.46668H5.67653M5.67653 4.46668L6.06768 1.97281C6.18117 1.51921 6.59056 1.20001 7.06075 1.20001H10.1393C10.6094 1.20001 11.0178 1.51921 11.1323 1.97281L11.5235 4.46668M5.67653 4.46668H11.5235M11.5235 4.46668H16.2" stroke="#052136" stroke-width="1.3" stroke-linecap="round" stroke-linejoin="round"/>
</svg>
