<svg width="16" height="16" viewBox="0 0 16 16" fill="none" xmlns="http://www.w3.org/2000/svg">
<path fill-rule="evenodd" clip-rule="evenodd" d="M3.2 0H12.8C14.5673 0 16 1.43269 16 3.2V12.8C16 14.5673 14.5673 16 12.8 16H3.2C1.43269 16 0 14.5673 0 12.8V3.2C0 1.43269 1.43269 0 3.2 0ZM14.2142 14.2142C14.5893 13.8391 14.8 13.3304 14.8 12.8V3.2C14.8 2.66957 14.5893 2.16086 14.2142 1.78579C13.8391 1.41071 13.3304 1.2 12.8 1.2H3.2C2.09543 1.2 1.2 2.09543 1.2 3.2V12.8C1.2 13.3304 1.41071 13.8391 1.78579 14.2142C2.16086 14.5893 2.66957 14.8 3.2 14.8H12.8C13.3304 14.8 13.8391 14.5893 14.2142 14.2142Z" fill="#052136"/>
<path d="M10.952 5.384C10.7177 5.15004 10.3383 5.15004 10.104 5.384L8.168 7.32L6.232 5.384C5.99559 5.16371 5.62719 5.17021 5.3987 5.3987C5.17021 5.62719 5.16371 5.99559 5.384 6.232L7.32 8.168L5.384 10.104C5.15004 10.3383 5.15004 10.7177 5.384 10.952C5.61825 11.186 5.99775 11.186 6.232 10.952L8.168 9.016L10.104 10.952C10.2164 11.0646 10.3689 11.1279 10.528 11.128C10.6864 11.1246 10.8377 11.0617 10.952 10.952C11.186 10.7177 11.186 10.3383 10.952 10.104L9.016 8.168L10.952 6.232C11.186 5.99775 11.186 5.61825 10.952 5.384Z" fill="#052136"/>
</svg>
