<svg width="16" height="16" viewBox="0 0 16 16" fill="none" xmlns="http://www.w3.org/2000/svg">
<path fill-rule="evenodd" clip-rule="evenodd" d="M3.2 0H12.8C14.5673 0 16 1.43269 16 3.2V12.8C16 14.5673 14.5673 16 12.8 16H3.2C1.43269 16 0 14.5673 0 12.8V3.2C0 1.43269 1.43269 0 3.2 0ZM14.2142 14.2142C14.5893 13.8391 14.8 13.3304 14.8 12.8V3.2C14.8 2.66957 14.5893 2.16086 14.2142 1.78579C13.8391 1.41071 13.3304 1.2 12.8 1.2H3.2C2.09543 1.2 1.2 2.09543 1.2 3.2V12.8C1.2 13.3304 1.41071 13.8391 1.78579 14.2142C2.16086 14.5893 2.66957 14.8 3.2 14.8H12.8C13.3304 14.8 13.8391 14.5893 14.2142 14.2142Z" fill="#052136"/>
<path d="M11.9521 5.77549C11.7178 5.54153 11.3383 5.54153 11.1041 5.77549L6.94503 10.047L5.00903 8.11102C4.77263 7.89074 4.40423 7.89724 4.17574 8.12573C3.94725 8.35422 3.94075 8.72262 4.16103 8.95902L6.16103 10.9755C6.16103 10.9755 6.52903 11.3755 6.94503 11.3755C7.36103 11.3755 7.76103 10.9755 7.76103 10.9755L11.9521 6.62349C12.186 6.38923 12.186 6.00974 11.9521 5.77549Z" fill="#052136"/>
</svg>
