<svg width="18" height="18" viewBox="0 0 18 18" fill="none" xmlns="http://www.w3.org/2000/svg">
<path d="M15.5188 9.00856V14.3414C15.5315 15.0952 15.2375 15.8225 14.7029 16.36C14.1683 16.8975 13.4379 17.2001 12.6755 17.2H3.64333C2.06755 17.1695 0.804897 15.9 0.800049 14.3414V5.44706C0.82592 3.88664 2.11257 2.63514 3.69072 2.63535H9.08348M6.84009 8.59867C6.66899 8.76263 6.55014 8.97251 6.49817 9.20245L5.89983 12.0161L8.74503 11.4123C8.97755 11.3609 9.18979 11.2434 9.35559 11.0742L15.994 4.50952C16.8862 3.80313 17.0633 2.5297 16.3969 1.61138C16.1051 1.3357 15.7135 1.18773 15.3101 1.20081C14.6148 1.22842 13.9577 1.52299 13.4785 2.02195L6.84009 8.59867Z" stroke="#052136" stroke-width="1.3" stroke-linecap="round" stroke-linejoin="round"/>
</svg>
