<svg width="20" height="20" viewBox="0 0 20 20" fill="none" xmlns="http://www.w3.org/2000/svg">
<path d="M2.81383 15.4533L2.81584 15.4456L2.81769 15.4377L3.06052 14.4117L3.06345 14.3993L3.06597 14.3869C3.26439 13.4001 4.25495 12.5767 5.54538 12.55H14.4546C15.7451 12.5767 16.7356 13.4001 16.934 14.3869L16.9365 14.3993L16.9395 14.4117L17.1823 15.4377L17.1842 15.4456L17.1862 15.4533C17.3516 16.0909 17.194 16.772 16.7243 17.3172C16.2518 17.8657 15.5075 18.2203 14.6819 18.25H5.31808C4.49251 18.2203 3.74816 17.8657 3.27565 17.3172C2.80597 16.772 2.64842 16.0909 2.81383 15.4533ZM6.19698 4.02401L6.19697 4.02149C6.19505 3.44883 6.44909 2.87852 6.93818 2.44345C7.43019 2.00581 8.11516 1.74807 8.84457 1.75001H8.84657L11.1534 1.75002L11.1554 1.75001C11.8848 1.74807 12.5698 2.00581 13.0618 2.44345L13.5501 1.89451L13.0618 2.44345C13.5509 2.87852 13.805 3.44883 13.803 4.02149V4.02401V6.40001C13.803 7.12565 13.4797 7.84212 12.8692 8.38521C12.2558 8.93085 11.4068 9.25001 10.5059 9.25001H9.49411C7.58819 9.25001 6.19698 7.89388 6.19698 6.40001L6.19698 4.02401Z" stroke="#052136" stroke-width="1.5"/>
</svg>
