<svg width="20" height="21" viewBox="0 0 20 21" fill="none" xmlns="http://www.w3.org/2000/svg">
<path d="M6.98026 7.25516C7.6162 8.57969 8.48312 9.82109 9.58101 10.919C10.6789 12.0169 11.9203 12.8838 13.2448 13.5197C13.3588 13.5744 13.4157 13.6018 13.4878 13.6228C13.744 13.6975 14.0585 13.6438 14.2755 13.4885C14.3365 13.4448 14.3888 13.3926 14.4932 13.2881C14.8126 12.9687 14.9724 12.809 15.133 12.7045C15.7387 12.3107 16.5195 12.3107 17.1252 12.7045C17.2858 12.809 17.4455 12.9687 17.765 13.2881L17.943 13.4662C18.4286 13.9518 18.6714 14.1945 18.8033 14.4553C19.0656 14.9739 19.0656 15.5863 18.8033 16.1049C18.6714 16.3657 18.4286 16.6084 17.943 17.094L17.799 17.2381C17.3151 17.722 17.0731 17.9639 16.7441 18.1487C16.3791 18.3538 15.8121 18.5012 15.3935 18.5C15.0162 18.4989 14.7583 18.4257 14.2425 18.2793C11.4709 17.4926 8.85553 16.0083 6.6736 13.8264C4.49168 11.6445 3.00738 9.0291 2.22071 6.25746C2.07432 5.74172 2.00113 5.48385 2.00001 5.10653C1.99876 4.68785 2.1462 4.1209 2.35126 3.75587C2.53605 3.42691 2.77801 3.18494 3.26193 2.70102L3.40597 2.55699C3.89155 2.07141 4.13434 1.82861 4.3951 1.69672C4.91369 1.43443 5.52611 1.43443 6.0447 1.69672C6.30546 1.82861 6.54825 2.0714 7.03383 2.55699L7.21189 2.73504C7.53133 3.05448 7.69104 3.2142 7.79547 3.37481C8.18927 3.9805 8.18927 4.76134 7.79547 5.36703C7.69104 5.52764 7.53133 5.68736 7.21189 6.0068C7.10744 6.11125 7.05521 6.16347 7.0115 6.22452C6.85616 6.44146 6.80252 6.75601 6.8772 7.01218C6.89821 7.08426 6.92556 7.14123 6.98026 7.25516Z" stroke="#052136" stroke-width="1.5" stroke-linecap="round" stroke-linejoin="round"/>
</svg>
