<svg width="18" height="18" viewBox="0 0 18 18" fill="none" xmlns="http://www.w3.org/2000/svg">
<path d="M16.1111 4.76543V17M16.1111 17H1.88889M16.1111 17H17M1.88889 17V4.76543M1.88889 17H1M6.33333 1V2.77778M6.33333 1H1V2.77778C1 4.25054 2.19391 5.44444 3.66667 5.44444C5.13943 5.44444 6.33333 4.25054 6.33333 2.77778M6.33333 1H11.6667M6.33333 2.77778C6.33333 4.25054 7.52724 5.44444 9 5.44444C10.4728 5.44444 11.6667 4.25054 11.6667 2.77778M11.6667 1V2.77778M11.6667 1H17V2.77778C17 4.25054 15.8061 5.44444 14.3333 5.44444C12.8606 5.44444 11.6667 4.25054 11.6667 2.77778M1.88889 14.3333H16.1111M4.55556 8.11111H13.4444V11.6667H4.55556V8.11111Z" stroke="#052136" stroke-width="1.3" stroke-linecap="round" stroke-linejoin="round"/>
</svg>
