<svg width="24" height="24" viewBox="0 0 24 24" fill="none" xmlns="http://www.w3.org/2000/svg">
<path fill-rule="evenodd" clip-rule="evenodd" d="M3.09313 13.2504C3.09313 7.97633 7.34266 3.70084 12.5847 3.70084C17.8268 3.70084 22.0763 7.97633 22.0763 13.2504C22.0763 18.5245 17.8268 22.8 12.5847 22.8C7.34266 22.8 3.09313 18.5245 3.09313 13.2504ZM4.67506 13.2504C4.67506 17.6455 8.21634 21.2084 12.5847 21.2084C14.6825 21.2084 16.6944 20.37 18.1777 18.8776C19.6611 17.3852 20.4944 15.361 20.4944 13.2504C20.4944 8.85535 16.9531 5.29244 12.5847 5.29244C8.21634 5.29244 4.67506 8.85535 4.67506 13.2504Z" fill="#052136"/>
<path d="M10.1064 9.20777C9.79471 8.91559 9.30906 8.92421 9.00784 9.22727C8.70663 9.53032 8.69806 10.0189 8.98846 10.3325L11.7938 13.1549V17.4947C11.7938 17.9342 12.1479 18.2905 12.5847 18.2905C13.0216 18.2905 13.3757 17.9342 13.3757 17.4947V12.826C13.3755 12.615 13.2921 12.4127 13.1437 12.2636L10.1064 9.20777Z" fill="#052136"/>
<path d="M22.6353 5.29244C21.3332 3.54539 19.6038 2.16727 17.6153 1.29222C17.4212 1.20371 17.1998 1.19773 17.0013 1.27562C16.8028 1.35352 16.6439 1.5087 16.5606 1.70604C16.4696 1.9009 16.462 2.12483 16.5398 2.32544C16.6176 2.52605 16.7738 2.68573 16.972 2.7671C18.7089 3.53599 20.2198 4.74187 21.3592 6.26862C21.5086 6.469 21.743 6.58694 21.992 6.58694C22.1632 6.58771 22.33 6.53179 22.4665 6.42778C22.6422 6.30248 22.7595 6.11054 22.7913 5.89628C22.8232 5.68202 22.7668 5.46395 22.6353 5.29244Z" fill="#052136"/>
<path d="M3.79972 6.2474C4.93912 4.72065 6.45002 3.51477 8.18695 2.74588C8.3851 2.6645 8.54133 2.50483 8.61909 2.30422C8.69685 2.10361 8.68932 1.87967 8.59825 1.68482C8.51498 1.48748 8.3561 1.3323 8.15758 1.2544C7.95906 1.17651 7.7377 1.18249 7.54363 1.271C5.55654 2.15355 3.83064 3.53905 2.53418 5.29244C2.30637 5.63409 2.37496 6.09413 2.69237 6.3535C2.82892 6.45751 2.99568 6.51344 3.16695 6.51266C3.40698 6.52557 3.63982 6.42796 3.79972 6.2474Z" fill="#052136"/>
</svg>
